<?xml version="1.0" encoding="UTF-8"?>
<svg id="Livello_2" data-name="Livello 2" xmlns="http://www.w3.org/2000/svg" viewBox="0 0 254.03 148.17">
  <defs>
    <style>
      .cls-1 {
        fill: #58a738;
      }
    </style>
  </defs>
  <g id="Livello_1-2" data-name="Livello 1">
    <g>
      <path class="cls-1" d="M111.24,0c20.61,0,41.22,0,61.83,0,1.49,0,3.02-.17,4.41,.59,2.22,1.21,3.03,3.6,2.31,6.77-1.65,7.31-3.24,14.63-5.02,21.91-.48,1.96-.27,2.57,1.92,2.54,9.85-.11,19.69-.09,29.54-.04,22.41,.13,40.79,14.42,46.63,36.02,2.03,7.51,1.07,14.82-.42,22.24-2.08,10.37-3.91,20.79-5.82,31.19-.81,4.45-2.55,6.31-7.12,5.86-4.88-.48-7.05,1-9.1,5.79-4.19,9.8-12.2,15.1-23.25,15.07-12.94-.03-22.23-6.76-26.03-19.11-.41-1.34-1-1.67-2.26-1.67-20.36,.02-40.72,.04-61.07-.03-1.71,0-2,.83-2.42,2.14-3.04,9.31-9.09,15.91-18.7,18.06-14.97,3.34-27.41-3.8-32.04-18.05-.55-1.7-1.25-2.18-2.93-2.13-4.42,.11-8.85,.14-13.27,0-5.11-.16-7.71-4.4-5.23-8.3,1.22-1.92,3.1-2.39,5.19-2.4,4.51-.01,9.01-.05,13.52,.02,1.44,.02,2.13-.29,2.6-1.87,3.41-11.58,13.7-19.29,25.44-19.26,12.03,.03,21.93,7.45,25.43,19.18,.43,1.45,.99,1.97,2.54,1.96,8.01-.08,16.02-.08,24.03,0,1.52,.01,2.21-.42,2.55-1.93,7.67-33.84,15.35-67.67,23.13-101.48,.52-2.27,0-2.6-2.12-2.6-38.47,.06-76.94,.04-115.41,.04-1.08,0-2.18,0-3.24-.16-2.91-.43-4.6-2.46-4.54-5.32,.06-2.86,1.85-4.79,4.85-4.95,2.66-.14,5.34-.1,8.01-.1,18.69,0,37.38,0,56.08,0Zm43.87,116.46c8.17,0,16.17-.02,24.17,.02,1.2,0,1.49-.6,1.79-1.59,3.76-12.08,13.67-19.58,25.72-19.53,11.79,.05,21.76,7.6,25.26,19.38,.61,2.05,1.86,1.63,3.22,1.74,1.62,.13,1.63-1.01,1.83-2.08,1.46-7.77,3.02-15.53,4.36-23.32,.79-4.59,2.36-9.09,2.22-13.78-.56-18.85-16.61-34.5-36-34.94-11.25-.26-22.52-.03-33.78-.11-1.56-.01-2.1,.46-2.45,2-3.24,14.48-6.6,28.93-9.89,43.4-2.17,9.52-4.28,19.06-6.46,28.8Zm51.47-10.57c-8.37,.06-15.77,7.18-15.83,14.93-.08,10.41,7.14,16.67,15.91,16.89,8.54,.22,15.92-7.34,15.88-15.7-.04-8.94-7.2-16.17-15.96-16.12Zm-132.33,15.85c.16,9.16,7.2,16.22,15.99,16.05,8.46-.17,15.73-7.64,15.65-16.09-.08-8.69-7.51-16-16.07-15.81-8.88,.19-15.73,7.17-15.58,15.85Z"/>
      <path class="cls-1" d="M37.06,84.77c10.34,0,20.67,.01,31.01-.01,2.13,0,3.96,.47,5.15,2.41,1.82,2.94,.53,6.6-2.72,7.76-1.04,.37-2.1,.45-3.19,.45-20.26,0-40.51,0-60.77-.01-3.52,0-5.72-1.34-6.32-3.75-.96-3.87,1.26-6.78,5.33-6.83,5-.06,10-.02,15-.02,5.5,0,11,0,16.5,0Z"/>
      <path class="cls-1" d="M42.35,52.88c8.42,0,16.83,.01,25.25,0,1.8,0,3.52,.23,4.88,1.52,2.8,2.68,1.71,7.51-1.97,8.76-1.19,.4-2.44,.47-3.7,.47-16.33-.01-32.66,0-49-.01-4.65,0-7.3-1.93-7.36-5.31-.07-3.59,2.43-5.42,7.41-5.42,8.17,0,16.33,0,24.5,0Z"/>
      <path class="cls-1" d="M47.66,21.18c6.75,0,13.5-.02,20.24,0,3.9,.02,6.16,2,6.13,5.31-.02,3.09-2.39,5.26-6.05,5.27-13.66,.04-27.32,.03-40.99,0-2.28,0-4.27-.8-5.33-3.03-.94-1.98-.7-3.87,.61-5.63,1.16-1.57,2.81-1.93,4.64-1.93,6.91,.01,13.83,0,20.74,0Z"/>
    </g>
  </g>
</svg>