<?xml version="1.0" encoding="UTF-8"?>
<svg id="Livello_2" data-name="Livello 2" xmlns="http://www.w3.org/2000/svg" viewBox="0 0 285.99 272.14">
  <defs>
    <style>
      .cls-1 {
        fill: #57a639;
      }
    </style>
  </defs>
  <g id="Livello_1-2" data-name="Livello 1">
    <g>
      <path class="cls-1" d="M283.26,43.38c-4.55-1.58-9.12-3.14-13.68-4.71-14.23-4.88-28.46-9.78-42.7-14.63-2.48-.85-3.63-.07-3.88,2.47-.23,2.4-.38,4.81-.63,7.21-.45,4.29-.28,8.68-1.58,12.84-1.56,4.99-3.41,9.9-5.12,14.85-12.91,37.3-25.82,74.61-38.74,111.91-1.66,4.79-3.35,9.57-5.03,14.36-.14-.03-.27-.07-.41-.1v-4.23c0-52,.01-104.01-.03-156.01,0-4.02,.32-7.93,1.47-11.81,1.15-3.9,2.05-7.88,2.95-11.85,.64-2.82-.08-3.65-2.99-3.65C152.99,0,133.1,0,113.2,0c-.33,0-.67,0-1,0-1.69,.06-2.45,1.01-2.21,2.61,.22,1.47,.59,2.93,.99,4.37,2.38,8.59,3.8,17.22,3.7,26.27-.31,30.53-.12,61.07-.12,91.61,0,20.88,0,41.77,0,62.65-.12,.03-.25,.05-.37,.08-.32-.75-.67-1.48-.94-2.24-6.83-19.71-13.64-39.43-20.47-59.14-7.83-22.62-15.73-45.21-23.48-67.86-2.28-6.65-5.29-13.11-5.32-20.4-.02-3.81-.56-7.63-.96-11.43-.28-2.65-1.31-3.26-3.88-2.49-.64,.19-1.27,.39-1.9,.61-10.77,3.7-21.54,7.41-32.31,11.11-7.47,2.57-14.94,5.12-22.4,7.7-2.81,.98-3.2,2.14-1.61,4.67,1.29,2.04,2.68,4.01,3.94,6.07,2.29,3.75,5.31,7.08,6.77,11.3,10.67,30.78,21.31,61.57,31.97,92.36,8.65,24.97,17.4,49.91,25.9,74.93,2.92,8.6,7.09,16.9,7.09,26.34,0,3.39,.56,6.79,.91,10.18,.28,2.64,1.27,3.31,3.86,2.54,2.15-.64,4.25-1.45,6.37-2.18,16.74-5.76,33.49-11.51,50.22-17.3,2.84-.98,3.17-2.07,1.57-4.62-1.25-1.98-2.52-3.95-3.9-6.12h14.74c-1.36,2.14-2.55,3.99-3.73,5.85-1.81,2.83-1.5,3.86,1.6,4.94,13.04,4.52,26.09,9,39.14,13.5,5.42,1.87,10.85,3.74,16.27,5.6,3.7,1.27,4.69,.62,4.96-3.17,.12-1.66,.19-3.33,.43-4.97,.64-4.36,.04-8.94,1.45-13.1,8.6-25.34,17.41-50.61,26.16-75.9,10.77-31.1,21.57-62.19,32.31-93.3,3.39-9.81,6.27-19.83,12.93-28.14,1.14-1.42,2.04-3.03,3.04-4.57,1.78-2.73,1.38-3.94-1.68-5ZM117.25,4.38c8.65,.09,17.29,.04,25.94,.04,8.56,0,17.13,.05,25.69-.04,1.78-.02,2.1,.51,1.67,2.12-.96,3.52-1.83,7.07-2.66,10.63-.31,1.35-.92,1.84-2.39,1.84-15.05-.06-30.1-.06-45.15,0-1.35,0-1.91-.48-2.2-1.72-.83-3.56-1.65-7.12-2.65-10.63-.5-1.77-.13-2.25,1.74-2.23Zm49.69,38.67c-3.27-4.28-6.26-7.9-9.88-10.95-2.3-1.93-4.71-3.69-7.24-5.28-1.38-.87-2.86-1.45-3.91,.26-1.01,1.66,.04,2.73,1.48,3.61,7.84,4.8,13.84,11.3,18.33,19.33,1.65,2.94,1.03,5.93,1.19,8.97-1.03,.14-1.07-.73-1.39-1.21-3.52-5.43-7.83-10.12-13.01-14.01-1.34-1.01-2.82-1.98-4.11-.25-1.26,1.68-.05,2.84,1.34,3.88,7.72,5.8,13.22,13.26,16.61,22.29,.42,1.11,.58,2.23,.58,3.41-.01,42.43-.02,84.86,.02,127.29,0,2.01-.78,3.72-1.37,5.52-1.14,3.47-2.42,6.9-3.54,10.38-.38,1.19-.88,1.73-2.24,1.72-11.15-.06-22.3-.06-33.46,0-1.43,0-1.99-.48-2.42-1.82-1.37-4.27-2.94-8.48-4.41-12.72-.21-.62-.39-1.29-.39-1.94-.03-7.48-.02-14.96-.02-22.6,1.16,.12,1.54,1.06,2.06,1.67,2.21,2.61,4.67,4.97,7.26,7.19,1.28,1.1,2.76,2.43,4.29,.66,1.52-1.76,.06-3.04-1.28-4.12-3.25-2.63-5.93-5.79-8.68-8.92-3.39-3.86-4.41-8.17-3.41-13.12,.79,.06,.86,.86,1.18,1.37,4.75,7.52,10.59,14.07,17.61,19.55,.58,.45,1.21,.91,1.89,1.16,.95,.35,1.81,0,2.41-.82,.61-.83,.63-1.74,0-2.54-.41-.51-.95-.92-1.47-1.34-9.17-7.25-16.19-16.18-21.05-26.82-.53-1.17-.81-2.31-.81-3.59,.02-41.18,.03-82.36-.03-123.55,0-1.87,.49-2.36,2.36-2.35,14.4,.08,28.8,.08,43.19,0,1.91-.01,2.38,.55,2.34,2.38-.12,5.53-.04,11.07-.04,17.3ZM12.76,57.98c-1.87-3.04-3.81-6.05-5.86-8.97-1.01-1.43-.83-1.97,.85-2.54,11.8-3.99,23.57-8.07,35.35-12.13,4.24-1.46,8.48-2.92,12.72-4.39,2.74-.95,2.76-.97,3.07,2.04,.32,3.06,.59,6.12,.93,9.61,.53,1.62-.37,2.4-2.33,3.06-13.93,4.69-27.82,9.51-41.7,14.37-1.47,.52-2.24,.24-3.04-1.05ZM78.66,245.34c-11.41-33.15-22.9-66.28-34.38-99.41-3.94-11.38-7.84-22.78-11.84-34.15-1.85-5.26-.57-10.37,.55-15.46,1.25-5.65,3.71-10.84,6.99-15.61,.91-1.33,1.62-2.75-.02-3.92-1.83-1.3-2.88,.09-3.81,1.46-3.97,5.85-6.68,12.23-8.37,19.24-.85-2.54-2.55-4.79-2.2-7.71,1.1-9.15,4.65-17.27,10.28-24.52,.41-.52,.87-1.01,1.25-1.55,.82-1.17,.92-2.36-.25-3.34-1.21-1.01-2.35-.59-3.27,.48-3.76,4.39-6.76,9.26-8.92,14.62-.8,2-1.49,4.04-2.29,6.24-1.42-2.01-1.76-4.35-2.57-6.48-1.22-3.18-2.18-6.46-3.39-9.64-.54-1.43-.25-2,1.22-2.5,13.85-4.7,27.69-9.45,41.49-14.27,1.49-.52,1.97-.27,2.47,1.18,4.78,13.91,9.64,27.79,14.45,41.68,8.62,24.89,17.17,49.8,25.88,74.65,1.1,3.14,.53,6.08,.07,9.08-1.53,9.82-4.98,18.93-10.34,27.31-.4,.63-.85,1.26-1.09,1.95-.37,1.05-.04,1.96,.92,2.59,.99,.66,1.92,.49,2.7-.32,.46-.47,.82-1.04,1.18-1.6,4.84-7.56,8.29-15.71,10.21-24.48,.1-.47,0-1.03,.53-1.28,4.74,7.03,1.33,13.41-1.45,19.8-.86,1.97-2.07,3.79-3.11,5.68-.75,1.38-.99,2.75,.64,3.65,1.53,.85,2.47-.1,3.26-1.32,2.45-3.78,4.26-7.88,6.01-12.52,1.69,3.2,2.45,6.3,3.5,9.27,3.04,8.53,5.91,17.12,8.93,25.66,.58,1.65,.47,2.44-1.37,3.06-13.62,4.6-27.22,9.28-40.79,14.01-1.8,.63-2.47,.31-3.11-1.57Zm54.33,4c-14.77,5.03-29.52,10.12-44.28,15.2-1.81,.62-3.63,1.2-5.41,1.88-1.21,.46-1.59,.11-1.68-1.15-.23-3.48-.46-6.97-.94-10.42-.3-2.13,.4-3.05,2.42-3.72,12.75-4.27,25.46-8.67,38.18-13.03,1.57-.54,3.14-1.08,4.46-1.54,1.28-.24,1.51,.63,1.89,1.2,2.06,3.12,4.03,6.29,6.15,9.37,.9,1.3,.63,1.72-.79,2.2Zm1.22-12.46c-3.16,.04-3.56-2.76-4.54-4.58-1.37-2.52-1.98-5.45-2.98-8.18-.54-1.49,.16-1.64,1.4-1.63,4.99,.04,9.98,.02,14.97,.02,4.91,0,9.82,.05,14.72-.03,1.7-.03,2.07,.49,1.44,2.02-1.52,3.66-2.2,7.66-4.67,10.94-.73,.96-1.39,1.45-2.63,1.44-5.91-.05-11.81-.08-17.72,0Zm71.1,16.74c-.29,3.68-.64,7.32-.82,10.97-.09,1.8-.5,2.25-2.38,1.6-13.09-4.59-26.23-9.05-39.36-13.56-3.22-1.11-6.43-2.25-9.68-3.27-1.38-.43-1.74-.9-.84-2.22,2.07-3.01,4.11-6.05,6-9.18,.9-1.49,1.82-1.51,3.29-1,9.1,3.18,18.23,6.27,27.34,9.41,5.03,1.73,10.04,3.5,15.08,5.21,1.06,.36,1.95,.7,1.37,2.04Zm64.25-187.96c-1.97,5.28-3.73,10.64-5.79,16.59-1.71-5.22-3.45-9.74-5.98-13.9-1.47-2.42-3.07-4.75-4.89-6.91-1.02-1.21-2.15-2.38-3.74-1-1.5,1.3-.79,2.66,.25,3.92,5.52,6.67,8.9,14.31,10.73,22.77,.84,3.89-.44,7.15-1.98,10.98-1.55-7.1-3.99-13.37-7.79-19.07-.28-.41-.56-.83-.84-1.24-.91-1.34-2.07-2.07-3.54-.96-1.33,1-1.09,2.24-.21,3.51,2.58,3.71,4.6,7.7,6.09,11.96,1.46,4.19,2.14,8.52,2.59,12.92,.53,5.26-2.05,9.7-3.64,14.35-7.66,22.49-15.53,44.91-23.31,67.37-6.8,19.63-13.59,39.25-20.33,58.9-.5,1.46-1.06,1.71-2.48,1.22-13.82-4.8-27.65-9.54-41.48-14.3-.9-.31-1.98-.38-1.42-1.95,4.15-11.75,8.24-23.52,12.35-35.28,.02-.07,.1-.11,.35-.38,.79,1.82,1.48,3.57,2.3,5.26,1.02,2.09,2.08,4.17,3.24,6.18,.86,1.48,1.78,3.47,3.97,2.03,1.95-1.28,.83-2.89-.07-4.34-2.19-3.55-3.68-7.43-5.28-11.27-1.99-4.79-1.22-9.19,1.26-13.72,1.09,3.86,1.94,7.64,3.3,11.26,2.03,5.39,4.57,10.51,7.72,15.33,.88,1.35,1.92,2.53,3.63,1.35,1.67-1.15,1.03-2.54,.14-3.9-5.82-8.91-9.3-18.68-11-29.17-.61-3.78,.13-7.18,1.35-10.69,9.57-27.46,19.06-54.94,28.59-82.42,3.56-10.28,7.17-20.55,10.69-30.85,.51-1.48,.95-1.9,2.61-1.31,13.73,4.81,27.49,9.51,41.26,14.18,1.5,.51,1.94,.96,1.33,2.6Zm9.73-16.93c-2.18,3.14-4.25,6.34-6.27,9.59-.67,1.08-1.32,1.19-2.45,.8-14.35-4.97-28.71-9.91-43.09-14.8-1.21-.41-1.54-1.03-1.34-2.19,.14-.82,.19-1.65,.28-2.47-.02,0-.04,0-.06,0,.28-2.97,.61-5.95,.82-8.93,.1-1.38,.55-1.66,1.85-1.21,16.47,5.7,32.94,11.38,49.43,17.03,1.3,.45,1.75,.84,.82,2.18Z"/>
      <path class="cls-1" d="M91.93,238.12c5.92-1.93,11.8-3.99,17.67-6.08,3.88-1.39,6.12-4.74,6.11-8.8-.02-6.83-6.34-10.96-13.21-8.61-5.5,1.89-10.99,3.8-16.48,5.7-5.32,1.84-8.18,6.85-6.67,11.69,1.67,5.37,6.87,7.96,12.58,6.1Zm-5.41-13.05c6.23-2.29,12.51-4.5,18.86-6.44,3.09-.94,5.91,1.6,5.83,5.17-.13,1.8-1.3,3.32-3.36,4.05-5.95,2.1-11.92,4.18-17.91,6.15-2.57,.85-5.22-.56-6.07-2.97-.84-2.39,.13-5.03,2.66-5.96Z"/>
      <path class="cls-1" d="M201.81,221.13c-6.65-2.59-13.41-4.95-20.26-6.93-4.81-1.39-9.6,1.73-10.89,6.36-1.38,4.93,.97,9.73,5.79,11.48,4.92,1.79,9.9,3.41,14.84,5.12,2.04,.7,4.02,1.61,6.25,1.58,4.49,.04,8.1-2.78,9.26-7.24,1.04-3.97-.97-8.81-4.99-10.38Zm.49,9.46c-.54,2.25-2.64,3.76-5.52,3.61-.71-.23-1.89-.62-3.06-1.02-5.11-1.74-10.23-3.45-15.33-5.24-2.81-.99-4.16-3.51-3.38-6.08,.81-2.67,3.49-4.05,6.41-3.09,5.84,1.92,11.66,3.91,17.45,5.97,2.78,.99,4.04,3.32,3.43,5.85Z"/>
      <path class="cls-1" d="M133.6,194.24c-5.39,.1-9.42,4.06-9.47,9.23-.05,5.31,3.98,9.45,9.44,9.52,6.32,.08,12.65,.09,18.97,0,5.29-.08,9.39-4.25,9.39-9.37,0-5.14-4.08-9.27-9.36-9.38-3.16-.07-6.32-.01-9.49-.01-3.16,0-6.33-.05-9.49,0Zm18.57,4.56c3.14,.03,5.18,2.05,5.15,4.87-.03,2.71-1.98,4.54-5.04,4.73-.17,0-.33,0-.5,0-2.91,0-5.82,0-8.72,0-3.07,0-6.15,.06-9.22-.02-3.16-.08-5.22-2.08-5.18-4.85,.04-2.73,2.18-4.71,5.32-4.74,6.06-.05,12.13-.06,18.19,0Z"/>
    </g>
  </g>
</svg>