<?xml version="1.0" encoding="UTF-8"?>
<svg id="Livello_2" data-name="Livello 2" xmlns="http://www.w3.org/2000/svg" viewBox="0 0 239.5 239.44">
  <defs>
    <style>
      .cls-1 {
        fill: #57a637;
      }
    </style>
  </defs>
  <g id="Livello_1-2" data-name="Livello 1">
    <g>
      <path class="cls-1" d="M183.31,111.76c-2.3,.08-4.55-.1-6.79-.34-.84-.09-1.2,.11-1.31,1.03-.81,7.18-1.68,14.36-2.52,21.54-.12,1.02-.48,1.89-1.13,2.7-27.27,33.5-54.52,67.02-81.78,100.53-2.24,2.76-4.13,2.93-6.95,.64C55.87,215.92,28.91,193.97,1.96,172.03c-2.36-1.92-2.59-4.01-.66-6.38,20.85-25.61,41.71-51.22,62.56-76.83,6.39-7.85,12.77-15.69,19.13-23.56,.83-1.02,1.82-1.67,3.05-2.08,13.55-4.53,27.08-9.11,40.64-13.62,.99-.33,1.43-.76,1.58-1.79,2.05-14.1,8.66-25.73,19.52-34.82C159.69,2.98,173.56-1.18,189.01,.29c25.97,2.46,46.56,22.51,50.02,48.52,3.21,24.2-10.28,48.33-32.55,58.11-7.38,3.24-15.12,4.91-23.17,4.84Zm-47.85-53.27c.08,3.42,.82,7.11,1.8,10.77,.42,1.59,.8,3.03,3,2.37,.51-.16,1.14,.05,1.71,.12,5.52,.66,9.34,3.65,11.28,8.77,1.98,5.23,.89,10.1-3,14.08-3.88,3.98-8.72,5.2-14,3.42-9.11-3.09-12.17-13.9-6.13-21.42,.83-1.04,.92-1.81,.47-3.04-1.66-4.55-2.52-9.29-2.86-14.12-.15-2.09-.12-2.1-2.03-1.46-11.66,3.91-23.31,7.84-34.98,11.72-1.35,.45-2.37,1.16-3.25,2.26-5.29,6.58-10.63,13.12-15.95,19.66-20.29,24.92-40.57,49.84-60.86,74.77-1.38,1.69-1.37,1.7,.27,3.03,24.53,19.95,49.05,39.89,73.56,59.86,.92,.75,1.28,.71,2.03-.22,10.75-13.28,21.56-26.52,32.35-39.78,15.16-18.62,30.31-37.25,45.47-55.87,.51-.62,.82-1.26,.91-2.1,.7-6.25,1.47-12.49,2.22-18.73,1.24-10.35,2.46-20.7,3.74-31.05,.13-1.02-.14-1.64-.92-2.26-10.22-8.29-20.41-16.61-30.62-24.92-.36-.29-.67-.64-1.22-.62-2.14,.09-3.17,1.18-3.05,3.29,.02,.37,.04,.73,.08,1.47Zm96.33-2.63c-.07-1.07-.13-2.22-.21-3.37-.79-11.35-5.04-21.29-12.85-29.5-11.27-11.83-25.22-16.65-41.44-14.83-19.41,2.18-36.4,17.57-40.66,36.71-.31,1.38,.22,1.3,1.14,.93,1.61-.66,3.05-.42,4.4,.68,11.83,9.64,23.66,19.26,35.5,28.9,1.24,1.01,1.77,2.3,1.58,3.89-.13,1.09-.28,2.18-.41,3.27-.78,6.5-1.56,13-2.35,19.5-.11,.91-.26,1.69,1.15,1.82,5.53,.53,11,.23,16.41-.97,21.98-4.89,37.81-24.59,37.74-47.04Zm-96.75,27.59c-.95,3.78,1.58,7.42,4.92,7.31-1.8-2.29-3.33-4.7-4.92-7.31Zm11.11,2.74c.73-3.09-1.61-6.51-4.3-6.4,1.24,2.22,2.69,4.25,4.3,6.4Z"/>
      <path class="cls-1" d="M99.89,152.09c-2.11,.03-4.33-.73-6.37-1.98-.73-.45-1.09-.28-1.54,.31-.66,.88-1.37,1.73-2.08,2.56-1.55,1.82-3.83,2.12-5.59,.76-1.67-1.3-1.88-3.56-.46-5.46,.85-1.13,2.24-2.14,2.46-3.37,.21-1.17-1.44-2.09-2.12-3.25-2.85-4.89-2.54-11.07,.85-15.54,1.48-1.94,3.73-2.42,5.51-1.16,1.85,1.3,2.13,3.61,.71,5.69-2.14,3.12-1.65,6.52,1.28,8.92,1.42,1.16,2.81,2.36,4.27,3.48,2.89,2.22,6.57,1.8,8.85-.94,2.09-2.51,1.7-6.47-.93-8.76-1.46-1.27-3.04-2.41-4.53-3.66-5.76-4.8-6.85-12.83-2.58-18.93,4.21-6.01,12.1-7.7,18.55-3.91,.77,.45,1.14,.38,1.63-.29,.75-1.01,1.54-2,2.4-2.91,1.46-1.55,3.74-1.68,5.25-.39,1.59,1.36,1.83,3.63,.53,5.36-.88,1.17-2.33,2.2-2.58,3.48-.25,1.26,1.53,2.16,2.22,3.37,2.71,4.73,2.42,10.89-.83,15.29-1.52,2.06-3.8,2.58-5.61,1.29-1.86-1.32-2.13-3.55-.69-5.69,2.09-3.1,1.66-6.41-1.17-8.85-1.35-1.16-2.73-2.29-4.14-3.39-2.9-2.28-6.83-1.96-9.02,.69-2.19,2.65-1.84,6.37,.92,8.87,1.51,1.37,3.19,2.57,4.71,3.93,4.17,3.75,5.83,8.44,4.48,13.89-1.36,5.49-4.96,8.98-10.5,10.35-1.16,.29-2.37,.4-3.91,.24Z"/>
      <path class="cls-1" d="M39.86,160.59c.05-3.13,2.91-4.99,5.3-3.95,.61,.27,1.19,.66,1.72,1.09,13.66,11.11,27.32,22.22,40.97,33.34,2.55,2.08,3.05,4.24,1.46,6.16-1.59,1.92-3.82,1.86-6.34-.19-13.62-11.08-27.23-22.17-40.85-33.24-1.21-.99-2.29-2.02-2.25-3.21Z"/>
      <path class="cls-1" d="M101.34,181.14c-.06,1.55-.75,2.7-2.18,3.34-1.54,.69-2.96,.43-4.25-.62-3.91-3.17-7.81-6.34-11.71-9.51-9.99-8.14-19.98-16.28-29.98-24.41-.9-.74-1.78-1.48-2.03-2.7-.32-1.57,.31-3.18,1.56-4,1.5-.98,3.14-.94,4.67,.27,3.44,2.74,6.85,5.53,10.26,8.3,10.57,8.59,21.13,17.18,31.71,25.76,1.16,.94,2.02,1.97,1.94,3.56Z"/>
    </g>
  </g>
</svg>