<?xml version="1.0" encoding="UTF-8"?>
<svg id="Livello_2" data-name="Livello 2" xmlns="http://www.w3.org/2000/svg" viewBox="0 0 237.96 238.08">
  <defs>
    <style>
      .cls-1 {
        fill: #56a535;
      }
    </style>
  </defs>
  <g id="Livello_1-2" data-name="Livello 1">
    <g>
      <path class="cls-1" d="M235.38,109.09c-1.7-3.26-3.65-6.35-5.91-9.24-4.73-6.04-6.44-12.79-5.27-20.37,.5-3.28,.57-6.62,.47-9.96-.22-7.47-3.42-13.23-9.78-17.22-3.04-1.91-6.2-3.57-9.52-4.92-7-2.83-11.91-7.67-14.76-14.69-1.5-3.7-3.33-7.25-5.6-10.57-3.38-4.95-8.01-7.9-13.97-8.65-4.07-.51-8.18-.42-12.2,.19-7.86,1.19-14.82-.47-21.07-5.4-2.94-2.32-6.11-4.32-9.49-5.97-6.43-3.15-12.81-3.05-19.17,.21-3.27,1.68-6.36,3.63-9.25,5.89-5.65,4.42-11.98,6.32-19.13,5.5-2.64-.3-5.29-.48-7.94-.72-9.94-.69-17.3,3.25-21.97,12.08-1.2,2.28-2.48,4.54-3.42,6.93-2.87,7.31-7.87,12.36-15.16,15.29-3.7,1.49-7.27,3.31-10.54,5.64-4.47,3.19-7.35,7.38-8.21,12.88-.68,4.32-.53,8.64,.06,12.93,1.11,8.07-.49,15.32-5.77,21.73-1.84,2.23-3.29,4.8-4.72,7.33-4.07,7.24-4.12,14.59-.11,21.86,1.48,2.69,3.06,5.38,4.98,7.75,5.05,6.21,6.71,13.22,5.65,21.02-.45,3.31-.56,6.63-.46,9.96,.22,7.26,3.3,12.93,9.41,16.92,2.94,1.91,6,3.62,9.26,4.88,7.49,2.9,12.69,7.98,15.64,15.47,1.34,3.4,3.06,6.65,5.1,9.7,3.88,5.8,9.28,8.91,16.27,9.19,3.58,.15,7.15,.06,10.71-.43,7.44-1.02,14.19,.48,20.17,5.2,3.01,2.37,6.24,4.41,9.68,6.14,6.3,3.18,12.6,3.25,18.93,.1,3.37-1.67,6.56-3.64,9.48-5.98,6.24-4.98,13.26-6.55,21.08-5.4,3.78,.56,7.63,.62,11.45,.27,4.81-.45,8.96-2.29,12.33-5.85,3.5-3.7,5.78-8.15,7.65-12.77,2.94-7.26,7.81-12.41,15.1-15.37,3.78-1.53,7.42-3.38,10.75-5.77,4.86-3.49,7.72-8.15,8.35-14.14,.44-4.17,.27-8.33-.31-12.44-1.04-7.4,.55-14.01,5.14-19.93,2.19-2.83,4.11-5.84,5.81-9,3.63-6.73,3.78-13.48,.23-20.29Zm-8.59,17.03c-1.52,2.38-2.99,4.81-4.7,7.06-5.78,7.61-8.03,16.11-6.78,25.57,.4,3.05,.49,6.13,.49,9.21,0,4.66-2.03,8.11-5.99,10.51-2.71,1.64-5.54,3.06-8.46,4.27-9,3.74-15.24,10.15-18.93,19.16-.97,2.38-2.27,4.62-3.43,6.93-2.72,5.42-7.25,7.52-13.12,7.12-3.07-.21-6.13-.45-9.2-.72-8.78-.75-16.59,1.69-23.59,6.98-2.92,2.21-5.93,4.29-9.28,5.82-3.21,1.47-6.4,1.53-9.64,.06-3.21-1.45-6.13-3.37-8.9-5.5-7.62-5.86-16.04-8.48-25.69-7.16-3.52,.48-7.11,.65-10.7,.42-3.89-.25-6.75-2.04-8.89-5.21-1.82-2.71-3.3-5.59-4.52-8.6-3.78-9.26-10.22-15.8-19.54-19.54-3-1.21-5.89-2.71-8.6-4.52-3.35-2.24-5.17-5.31-5.25-9.38-.06-3.08-.05-6.16,.37-9.22,1.33-9.69-.74-18.49-6.77-26.3-2.19-2.83-4.16-5.81-5.7-9.07-1.56-3.3-1.6-6.56-.08-9.87,1.43-3.12,3.28-6,5.39-8.67,6.4-8.12,8.58-17.26,7.12-27.42-.37-2.62-.27-5.31-.33-7.97-.11-4.57,1.88-7.97,5.74-10.37,2.77-1.72,5.67-3.16,8.67-4.4,9-3.75,15.25-10.16,18.91-19.17,.66-1.61,1.54-3.14,2.24-4.73,3.09-7.05,8.2-10.53,16.07-9.25,3.07,.24,6.13,.53,9.2,.72,8,.49,15.04-2.07,21.42-6.76,2.68-1.97,5.42-3.85,8.35-5.46,4.22-2.32,8.38-2.32,12.59,.03,2.69,1.5,5.28,3.18,7.72,5.05,7.74,5.9,16.36,8.21,26.03,6.84,2.79-.39,5.64-.36,8.46-.44,5.08-.16,8.8,2.11,11.2,6.52,1.39,2.55,2.78,5.13,3.91,7.8,3.74,8.88,9.96,15.19,18.88,18.88,2.99,1.24,5.89,2.71,8.65,4.44,3.77,2.36,5.65,5.71,5.69,10.16,.03,3.17-.07,6.33-.49,9.46-1.28,9.58,1.16,18.1,7.02,25.75,1.66,2.17,3.07,4.55,4.53,6.87,2.95,4.7,2.91,9.42-.06,14.09Z"/>
      <path class="cls-1" d="M119.04,36.61c-45.48-.08-82.49,36.85-82.5,82.34-.01,45.58,36.8,82.43,82.35,82.44,45.44,.01,82.37-36.79,82.42-82.14,.05-45.5-36.84-82.56-82.27-82.64Zm-.24,155.99c-40.33,.03-73.33-33.02-73.37-73.49-.04-40.61,32.88-73.6,73.45-73.59,40.6,0,73.54,32.94,73.52,73.53-.01,40.48-33.08,73.52-73.61,73.55Z"/>
      <path class="cls-1" d="M145.82,85.42c-11.58,11.48-23.1,23.01-34.57,34.6-1.41,1.43-2.19,1.35-3.53-.03-5.22-5.37-10.52-10.66-15.87-15.9-5.89-5.76-14.98-5.75-20.65-.07-5.76,5.76-5.87,14.77-.08,20.64,9.35,9.47,18.79,18.85,28.23,28.24,2.78,2.76,6.17,4.16,10.13,4.07,4.05,.1,7.47-1.39,10.34-4.19,2.55-2.5,5.07-5.04,7.6-7.57,13.05-13.06,26.14-26.09,39.15-39.2,6.04-6.08,5.76-15.37-.45-21.17-5.69-5.31-14.52-5.13-20.29,.59Zm14.28,14.51c-15.4,15.4-30.79,30.82-46.22,46.2-2.7,2.7-6.11,2.65-8.84-.07-9.08-9.03-18.13-18.09-27.16-27.16-2.58-2.59-2.7-6.14-.41-8.45,2.35-2.37,5.94-2.24,8.64,.44,6.44,6.38,12.83,12.81,19.25,19.2,3.16,3.15,5.11,3.17,8.23,.05,12.65-12.63,25.29-25.28,37.94-37.9,2.45-2.45,5.11-2.96,7.65-1.49,1.89,1.09,2.77,2.8,2.8,4.65-.02,1.98-.7,3.36-1.87,4.53Z"/>
    </g>
  </g>
</svg>