<?xml version="1.0" encoding="UTF-8"?>
<svg id="Livello_2" data-name="Livello 2" xmlns="http://www.w3.org/2000/svg" viewBox="0 0 217.58 216.88">
  <defs>
    <style>
      .cls-1 {
        fill: #56a638;
      }
    </style>
  </defs>
  <g id="Livello_1-2" data-name="Livello 1">
    <path class="cls-1" d="M217.51,63.46c0-9.4-.11-18.79,.07-28.18,.06-3.01-1.06-4.66-3.61-6.1-16.41-9.26-32.78-18.6-49.09-28.04-2.46-1.43-4.38-1.49-6.87-.04-15.65,9.08-31.41,17.99-47.09,27.03-1.57,.9-2.69,.91-4.26,0C90.93,19.04,75.1,10.08,59.37,.97c-2.33-1.35-4.13-1.26-6.42,.06C36.41,10.59,19.83,20.05,3.2,29.44,.87,30.76,0,32.39,0,35.03,.09,53.91,.1,72.78,0,91.66c-.01,2.79,1,4.41,3.38,5.75,15.83,8.94,31.58,18.02,47.41,26.96,1.54,.87,2.01,1.81,2,3.5-.06,18.13,0,36.25-.08,54.38-.01,2.48,.87,3.94,3.02,5.15,16.62,9.41,33.2,18.87,49.73,28.43,2.38,1.38,4.23,1.42,6.64,.03,16.45-9.53,32.97-18.95,49.52-28.3,2.4-1.35,3.39-2.97,3.37-5.75-.1-17.96-.02-35.92-.09-53.88,0-1.82,.56-2.78,2.15-3.68,15.89-9,31.72-18.12,47.61-27.12,2.06-1.17,2.92-2.61,2.9-4.98-.09-9.56-.04-19.12-.04-28.68ZM160.59,7.73c.69-.41,1.22-.24,1.82,.1,14.6,8.36,29.2,16.72,43.8,25.09,.13,.07,.19,.26,.4,.57-3.08,1.76-6.16,3.48-9.19,5.28-.79,.47-1.34,.3-2.04-.1-14.67-8.4-29.35-16.78-44.43-25.39,3.5-2,6.59-3.74,9.65-5.54Zm28.82,48.66c-1.44,.58-2.73,1.53-4.1,2.29-.45,.25-.95,.83-1.4-.04-.66-1.28,.18-4.21,1.48-4.95,2.41-1.38,4.83-2.74,7.3-4.13,1.23,3.69-.26,5.61-3.28,6.83Zm-46.29-38.67c.7-.41,1.24-.16,1.83,.17,14.55,8.32,29.09,16.63,43.63,24.96,.19,.11,.31,.36,.53,.62-2.7,1.55-5.36,3.07-8.01,4.61-.68,.4-1.24,.57-2.04,.11-14.66-8.44-29.35-16.84-44.02-25.25-.05-.03-.06-.14-.18-.48,2.72-1.56,5.5-3.13,8.26-4.75Zm-30.84,23.01c0-.31,.05-.61,.07-.92,1.06-.16,1.66,.52,2.35,.91,13.77,7.84,27.51,15.72,41.29,23.54,1.38,.78,1.99,1.59,1.98,3.27-.07,15.78-.07,31.57-.01,47.35,0,1.99-.19,2.53-2.21,1.36-13.93-8.05-27.92-16.01-41.9-23.96-1.01-.57-1.6-1.12-1.6-2.44,.05-16.37,.03-32.73,.04-49.1Zm-4.37,57.23c.67-.39,1.17-.36,1.82,.02,14.68,8.43,29.37,16.84,44.05,25.27,.05,.03,.04,.15,.12,.48-3.07,1.76-6.23,3.52-9.34,5.36-.65,.38-1.08,.15-1.59-.14-14.68-8.42-29.37-16.84-44.05-25.27-.05-.03-.05-.15-.15-.47,3.01-1.72,6.09-3.46,9.13-5.24Zm26.5,44.98c1.84-1.05,3.68-2.08,5.6-3.16,.77,4.46,.76,4.5-2.72,6.49-1.91,1.09-3.83,2.15-5.83,3.26q-.63-4.55,2.95-6.59Zm-6.08-4.57c-.76,.46-1.35,.3-2.05-.09-14.6-8.38-29.2-16.75-43.8-25.13-.06-.04-.09-.14-.3-.48,2.82-1.61,5.66-3.2,8.46-4.85,.65-.38,1.1-.07,1.6,.21,14.62,8.35,29.23,16.71,43.85,25.08,.12,.07,.16,.27,.34,.58-2.7,1.56-5.42,3.09-8.1,4.68Zm-23.03-48.95c0,1.21-.11,2.08-1.4,2.81-14.23,8.04-28.41,16.18-42.61,24.29-.35,.2-.72,.35-1.07,.53-.78-.66-.45-1.45-.45-2.13-.02-15.79,0-31.58-.06-47.37,0-1.63,.46-2.55,1.91-3.3,3.22-1.69,6.35-3.56,9.67-5.44,.63,2.14,.25,4.13,.33,6.07,.15,3.78,2.56,5.22,5.85,3.37,4.99-2.8,9.94-5.7,14.93-8.49,1.72-.96,2.54-2.31,2.37-4.26-.01-.16,0-.33,0-.5,.12-3.22-1.29-7.28,.46-9.47,2.21-2.77,6.31-4.02,10.06-6.2,0,8.4,0,16.29,0,24.17,0,8.64-.01,17.29,.01,25.93Zm-23.57-36.63c1.79-1.02,3.59-2.02,5.4-3.01,.12-.06,.31,.01,.46,.02,.7,2.94,.22,5.19-3.02,6.41-1.96,.74-3.7,2.02-5.63,3.1q-.72-4.51,2.78-6.52ZM55.79,7.54c.65-.37,1.1,.15,1.57,.42,14.47,8.25,28.93,16.52,43.39,24.78,.22,.12,.43,.26,.94,.57-3.37,1.93-6.33,3.59-9.24,5.34-.93,.56-1.63,.41-2.5-.08-14.59-8.36-29.19-16.7-44.24-25.3,3.54-2.01,6.81-3.87,10.08-5.72Zm-17.83,10.15c.73-.43,1.25-.06,1.81,.26,14.54,8.31,29.07,16.62,43.6,24.93,.14,.08,.22,.24,.54,.59-2.76,1.59-5.43,3.09-8.07,4.65-.71,.42-1.28,.5-2.05,.06-14.59-8.38-29.2-16.72-43.8-25.09-.11-.06-.14-.26-.33-.63,2.76-1.58,5.54-3.15,8.3-4.77Zm14.8,97.42c0,2.22-.62,2.05-2.19,1.15-13.88-7.98-27.8-15.9-41.71-23.83-1.12-.64-1.89-1.21-1.88-2.8,.08-16.2,.05-32.4,.05-48.6,0-.39,.04-.78,.09-1.64,9.4,5.37,18.39,10.5,27.39,15.64,5.47,3.13,10.93,6.29,16.44,9.36,1.21,.68,1.81,1.38,1.8,2.87-.06,15.95-.07,31.9,0,47.86Zm2.49-56.3c-14.74-8.46-29.51-16.88-44.6-25.5,3.79-2.16,7.32-4.15,10.81-6.2,.75-.44,1.25-.07,1.81,.25,14.56,8.32,29.12,16.64,43.67,24.98,.13,.07,.2,.26,.43,.58-3.37,1.93-6.61,3.79-9.85,5.64-.73,.42-1.36,.77-2.28,.24Zm50.02,148.37c-1.08,.05-1.63-.53-2.25-.88-13.77-7.85-27.52-15.73-41.32-23.54-1.49-.84-2.02-1.78-2.01-3.5,.07-15.71,.08-31.42,0-47.13-.01-2.39,.52-2.37,2.38-1.3,13.8,7.96,27.65,15.83,41.49,23.72,.93,.53,1.76,.93,1.75,2.35-.06,16.7-.04,33.41-.04,50.26Zm3.83-57.9c-.61,.34-1.1-.24-1.58-.51-14.35-8.18-28.68-16.38-43.02-24.59-.27-.15-.51-.37-1.07-.79,3.63-2.08,6.95-3.95,10.23-5.89,.83-.49,1.47-.42,2.28,.04,14.61,8.38,29.24,16.74,44.35,25.39-3.94,2.24-7.56,4.32-11.2,6.35Zm48.85-3.67c0,11.3,0,22.59,.01,33.89,0,1.21-.09,2.14-1.37,2.86-14.36,8.13-28.69,16.33-43.03,24.51-.28,.16-.58,.26-1.28,.58v-14.52c0-11.8,.02-23.59-.03-35.39,0-1.4,.37-2.24,1.65-2.93,3.35-1.79,6.62-3.73,10.31-5.84,0,2.34-.03,4.36,0,6.37,.07,3.56,2.61,5.07,5.72,3.34,5.07-2.82,10.08-5.76,15.15-8.6,1.64-.92,2.32-2.23,2.28-4.07-.06-2.82,.06-5.65-.04-8.47-.05-1.35,.42-2.11,1.6-2.73,2.42-1.28,4.79-2.65,7.13-4.07,1.44-.88,1.97-.74,1.93,1.1-.09,4.65-.03,9.3-.03,13.95Zm4.72-86.98c-.89,.52-1.58,.54-2.5,.01-14.52-8.34-29.05-16.63-43.59-24.95-.12-.07-.21-.22-.48-.51,3.56-2.03,7.08-4.01,10.57-6.06,.74-.44,1.25-.09,1.81,.23,14.46,8.26,28.92,16.53,43.37,24.81,.27,.16,.48,.41,.82,.71-3.42,1.96-6.73,3.82-10.01,5.75Zm47.9,30.75c0,1.56-.53,2.34-1.83,3.08-13.85,7.85-27.67,15.77-41.5,23.66-2.25,1.28-2.27,1.27-2.27-1.37,0-15.78,.02-31.57-.04-47.35,0-1.54,.49-2.39,1.84-3.1,3.21-1.69,6.33-3.55,10.02-5.65,0,2.55-.08,4.54,.02,6.52,.17,3.42,2.71,4.87,5.69,3.2,5.07-2.83,10.07-5.78,15.13-8.62,1.73-.97,2.45-2.31,2.4-4.26-.07-2.82,0-5.65-.02-8.47,0-.93,0-1.73,1.02-2.29,3.05-1.65,6.04-3.4,9.04-5.1,.76,.6,.44,1.32,.44,1.91,.02,15.95,0,31.9,.06,47.85Z"/>
  </g>
</svg>