<?xml version="1.0" encoding="UTF-8"?>
<svg id="Livello_2" data-name="Livello 2" xmlns="http://www.w3.org/2000/svg" xmlns:xlink="http://www.w3.org/1999/xlink" viewBox="0 0 1205.69 240.44">
  <defs>
    <style>
      .cls-1 {
        fill: url(#Sfumatura_senza_nome_5);
      }

      .cls-2 {
        fill: url(#Sfumatura_senza_nome_5-3);
      }

      .cls-3 {
        fill: url(#Sfumatura_senza_nome_5-2);
      }

      .cls-4 {
        fill: url(#Sfumatura_senza_nome_5-4);
      }

      .cls-5 {
        fill: #56a635;
        stroke: #56a635;
        stroke-miterlimit: 10;
      }
    </style>
    <linearGradient id="Sfumatura_senza_nome_5" data-name="Sfumatura senza nome 5" x1="141.08" y1="142.8" x2="215.59" y2="214.36" gradientUnits="userSpaceOnUse">
      <stop offset="0" stop-color="#3aa434"/>
      <stop offset="1" stop-color="#abce90"/>
    </linearGradient>
    <linearGradient id="Sfumatura_senza_nome_5-2" data-name="Sfumatura senza nome 5" x1="3196.21" y1="142.79" x2="3270.71" y2="214.35" gradientTransform="translate(3294.83) rotate(-180) scale(1 -1)" xlink:href="#Sfumatura_senza_nome_5"/>
    <linearGradient id="Sfumatura_senza_nome_5-3" data-name="Sfumatura senza nome 5" x1="141.08" y1="-462.54" x2="215.59" y2="-390.98" gradientTransform="translate(0 -364.91) scale(1 -1)" xlink:href="#Sfumatura_senza_nome_5"/>
    <linearGradient id="Sfumatura_senza_nome_5-4" data-name="Sfumatura senza nome 5" x1="3196.21" y1="-462.56" x2="3270.71" y2="-391" gradientTransform="translate(3294.83 -364.91) rotate(-180)" xlink:href="#Sfumatura_senza_nome_5"/>
  </defs>
  <g id="Livello_1-2" data-name="Livello 1">
    <g>
      <path class="cls-1" d="M239.65,190.2c-.7-9.95-4.07-18.68-9.48-26.63-6.44-9.45-14.44-17.22-24.78-22.35-6.64-3.3-13.69-5.4-20.97-6.72-13.1-2.38-26.21-4.7-39.32-6.98-5.41-.94-10.88-1.49-16.33-2.14-2.25-.27-3.36,.82-3.09,3.09,.42,3.45,.98,6.88,1.48,10.32,.88,6.04,1.75,12.09,2.65,18.13,1.36,9.19,2.86,18.35,4.59,27.48,1.11,5.82,2.51,11.55,5.01,16.94,8.85,19.09,23.3,31.62,43.77,36.9,9.5,2.45,19,2.37,28.27-1.15,11.45-4.35,19.25-12.49,23.98-23.67,2.82-6.66,4.07-13.66,4.19-20.88,.01-.88,.16-1.75,.03-2.35Z"/>
      <path class="cls-3" d="M.06,190.19c.7-9.95,4.07-18.68,9.48-26.63,6.44-9.45,14.44-17.22,24.78-22.35,6.64-3.3,13.69-5.4,20.97-6.72,13.1-2.38,26.21-4.7,39.32-6.98,5.41-.94,10.88-1.49,16.33-2.14,2.25-.27,3.36,.82,3.09,3.09-.42,3.45-.98,6.88-1.48,10.32-.88,6.04-1.75,12.09-2.65,18.13-1.36,9.19-2.86,18.35-4.59,27.48-1.11,5.82-2.51,11.55-5.01,16.94-8.85,19.09-23.3,31.62-43.77,36.9-9.5,2.45-19,2.37-28.27-1.15-11.45-4.35-19.25-12.49-23.98-23.67C1.45,206.75,.2,199.75,.08,192.54c-.01-.88-.16-1.75-.03-2.35Z"/>
      <g>
        <path class="cls-2" d="M239.65,50.23c-.7,9.95-4.07,18.68-9.48,26.63-6.44,9.45-14.44,17.22-24.78,22.35-6.64,3.3-13.69,5.4-20.97,6.72-13.1,2.38-26.21,4.7-39.32,6.98-5.41,.94-10.88,1.49-16.33,2.14-2.25,.27-3.36-.82-3.09-3.09,.42-3.45,.98-6.88,1.48-10.32,.88-6.04,1.75-12.09,2.65-18.13,1.36-9.19,2.86-18.35,4.59-27.48,1.11-5.82,2.51-11.55,5.01-16.94,8.85-19.09,23.3-31.62,43.77-36.9,9.5-2.45,19-2.37,28.27,1.15,11.45,4.35,19.25,12.49,23.98,23.67,2.82,6.66,4.07,13.66,4.19,20.88,.01,.88,.16,1.75,.03,2.35Z"/>
        <path class="cls-4" d="M.06,50.25c.7,9.95,4.07,18.68,9.48,26.63,6.44,9.45,14.44,17.22,24.78,22.35,6.64,3.3,13.69,5.4,20.97,6.72,13.1,2.38,26.21,4.7,39.32,6.98,5.41,.94,10.88,1.49,16.33,2.14,2.25,.27,3.36-.82,3.09-3.09-.42-3.45-.98-6.88-1.48-10.32-.88-6.04-1.75-12.09-2.65-18.13-1.36-9.19-2.86-18.35-4.59-27.48-1.11-5.82-2.51-11.55-5.01-16.94C91.45,20.01,77,7.49,56.53,2.2,47.03-.25,37.53-.17,28.26,3.35,16.81,7.7,9.01,15.85,4.28,27.02,1.45,33.69,.2,40.69,.08,47.9c-.01,.88-.16,1.75-.03,2.35Z"/>
      </g>
    </g>
    <g>
      <path class="cls-5" d="M642.59,1.57c-28.86,38.84-54.9,75.18-78.12,109.03-23.22,33.85-45.34,67.7-66.36,101.55,7.95-1.54,15.11-4.1,21.47-7.66,6.35-3.56,12.68-8.67,18.97-15.32l4.81,4.45c-6.3,8.08-13.84,14.43-22.63,19.06-8.79,4.63-18.29,7.24-28.5,7.84l-9.09,14.25h-21.2l10.15-15.68c-9.62-1.31-18.68-3.86-27.17-7.66-8.49-3.8-16.72-9.03-24.67-15.68-18.41,15.32-34.09,26.34-47.03,33.05-12.94,6.71-24.88,10.07-35.81,10.07-8.08,0-14.58-2.23-19.51-6.68-4.93-4.45-7.39-10.3-7.39-17.55,0-6.77,2.61-12.95,7.84-18.53,5.23-5.58,10.75-8.37,16.57-8.37,3.56,0,6.53,1.07,8.91,3.21,2.38,2.14,3.56,4.81,3.56,8.02s-1.22,6.24-3.65,8.73c-2.43,2.49-5.26,3.74-8.46,3.74-1.66,0-3.5-.36-5.52-1.07-2.02-.71-3.32-1.07-3.92-1.07-2.14,0-3.83,.77-5.08,2.32-1.25,1.54-1.87,3.68-1.87,6.41,0,3.68,1.87,6.8,5.61,9.35,3.74,2.55,8.58,3.83,14.52,3.83,9.74,0,21.02-3.5,33.85-10.51,12.83-7.01,26.84-17.28,42.04-30.82-10.22-11.4-18.02-23.37-23.43-35.9-5.41-12.53-8.11-24.91-8.11-37.15,0-15.92,4.25-29.01,12.74-39.28,8.49-10.27,19.33-15.41,32.51-15.41,12.11,0,23.52,5.05,34.21,15.14,10.69,10.1,18.53,23.46,23.52,40.08,37.53-41.09,67.97-70.85,91.3-89.26S619.78,.5,634.03,.5c1.54,0,3.56,.24,6.06,.71,1.18,.24,2.02,.36,2.49,.36Zm-162.83,123.1c-3.56-15.8-9.98-28.56-19.24-38.3-9.26-9.74-19.24-14.61-29.93-14.61s-19.3,4.51-26.19,13.54c-6.89,9.03-10.33,20.67-10.33,34.92,0,11.16,2.32,22.33,6.95,33.49,4.63,11.16,11.28,21.5,19.95,31,10.45-9.15,20.55-18.74,30.29-28.77,9.74-10.04,19.24-20.46,28.5-31.27Zm1.43,10.15c-3.21,3.44-8.02,8.49-14.43,15.14-17.82,18.77-31.12,32.07-39.91,39.91,6.29,6.18,13.54,11.19,21.73,15.05,8.2,3.86,17.16,6.5,26.9,7.93,2.38-7.24,4.19-15.59,5.43-25.03,1.25-9.44,1.87-19.92,1.87-31.44,0-4.16-.12-7.96-.36-11.4-.24-3.44-.65-6.83-1.25-10.15ZM628.33,9.23c-13.07,1.54-31.3,12.14-54.69,31.8-23.4,19.66-51.61,48.19-84.62,85.6,.59,5.23,1.04,9.89,1.34,13.99,.29,4.1,.45,7.99,.45,11.67,0,8.55-.27,16.27-.8,23.16s-1.4,13.36-2.58,19.42c19.6-29.45,41.03-59.56,64.31-90.32,23.28-30.76,48.81-62.53,76.61-95.31Z"/>
      <path class="cls-5" d="M662.18,69.8h21.91l-25.65,34.03h35.81l-5.52,7.66h-35.63l-73.04,98.16c-2.61,3.44-4.78,6.89-6.5,10.33-1.72,3.44-2.58,5.82-2.58,7.13,0,1.54,.53,2.73,1.6,3.56s2.61,1.25,4.63,1.25c5.23,0,13.27-3.86,24.14-11.58,10.87-7.72,23.61-18.59,38.21-32.6l4.81,4.28c-14.73,15.44-28.09,27.23-40.08,35.36-12,8.14-22.03,12.2-30.11,12.2-3.92,0-7.13-1.37-9.62-4.1-2.49-2.73-3.74-6.24-3.74-10.51,0-5.82,1.9-12.98,5.7-21.47,3.8-8.49,9.03-17.31,15.68-26.46l48.64-65.56h-26.01l5.52-7.66h26.37l25.48-34.03Z"/>
      <path class="cls-5" d="M724.89,131.8l-25.48,34.03c15.56-13.9,29.28-24.32,41.15-31.27,11.87-6.95,21.97-10.42,30.29-10.42,5.1,0,9,1.13,11.67,3.38,2.67,2.26,4.01,5.4,4.01,9.44s-1.54,8.88-4.63,14.88c-3.09,6-7.37,12.26-12.83,18.8l-32.78,39.02c-3.8,4.39-6.53,7.84-8.2,10.33-1.67,2.49-2.49,4.39-2.49,5.7,0,1.54,.45,2.7,1.34,3.47,.89,.77,2.29,1.16,4.19,1.16,6.06,0,15.17-3.92,27.35-11.76,12.17-7.84,26.63-19.12,43.38-33.85l4.1,5.17c-16.15,15.56-31.03,27.52-44.63,35.9-13.6,8.37-24.74,12.56-33.4,12.56-4.04,0-7.19-1.34-9.44-4.01-2.26-2.67-3.38-6.44-3.38-11.31s1.54-10.51,4.63-16.92c3.09-6.41,7.36-12.77,12.83-19.06l33.31-38.66c2.73-3.21,4.75-5.82,6.06-7.84,1.31-2.02,1.96-3.68,1.96-4.99,0-1.43-.48-2.52-1.43-3.3-.95-.77-2.32-1.16-4.1-1.16-12.23,0-29.48,9.56-51.75,28.68-22.27,19.12-44.27,44.12-66.01,75h-20.84l102.44-136.82c22.09-29.34,42.78-52.35,62.09-69.03,19.3-16.69,34.65-25.03,46.05-25.03,2.97,0,5.34,.86,7.13,2.58,1.78,1.72,2.67,4.01,2.67,6.86,0,12.59-11.64,30.2-34.92,52.82-23.28,22.63-53.39,44.51-90.32,65.65Zm7.3-10.87c32.18-20.43,58.43-40.59,78.74-60.48,20.31-19.89,30.46-34.53,30.46-43.91,0-1.31-.56-2.46-1.69-3.47-1.13-1.01-2.41-1.51-3.83-1.51-7.72,0-18.14,6.62-31.27,19.86-13.12,13.24-37.26,43.08-72.42,89.52Z"/>
      <path class="cls-5" d="M826.26,189.52c-5.94,7.01-10.57,13.39-13.9,19.15-3.32,5.76-4.99,10.3-4.99,13.63,0,2.73,1.13,4.9,3.38,6.5,2.26,1.6,5.34,2.41,9.26,2.41,9.86,0,22.45-3.89,37.77-11.67,15.32-7.78,31.59-18.62,48.81-32.51l3.56,5.7c-18.06,14.85-35.27,26.43-51.66,34.74-16.39,8.31-29.93,12.47-40.62,12.47-6.65,0-11.96-1.81-15.94-5.43-3.98-3.62-5.97-8.4-5.97-14.34,0-10.57,3.59-21.65,10.78-33.23,7.19-11.58,17.61-23.13,31.27-34.65,10.69-8.91,21.89-15.94,33.58-21.11,11.7-5.17,22-7.75,30.91-7.75,4.87,0,8.52,.86,10.96,2.58,2.43,1.72,3.65,4.31,3.65,7.75,0,9.03-8.46,18.88-25.39,29.57s-38.75,19.42-65.47,26.19Zm8.02-9.8c20.55-5.23,38.1-12.56,52.64-22,14.55-9.44,21.82-17.07,21.82-22.89,0-1.43-.6-2.52-1.78-3.3-1.19-.77-2.91-1.16-5.17-1.16-7.24,0-16.87,4.36-28.86,13.09-12,8.73-24.88,20.81-38.66,36.25Z"/>
      <path class="cls-5" d="M1001.03,122.71c.71,10.1,1.18,17.37,1.43,21.82,.24,4.45,.36,8.05,.36,10.78,0,24.47-6.86,44.42-20.58,59.86-13.72,15.44-30.67,23.16-50.86,23.16-6.06,0-10.98-1.48-14.79-4.45-3.8-2.97-5.7-6.83-5.7-11.58s1.4-8.31,4.19-11.4c2.79-3.09,6.27-4.63,10.42-4.63,2.49,0,4.63,.89,6.41,2.67s2.67,3.92,2.67,6.41c0,4.39-1.87,7.57-5.61,9.53-3.74,1.96-5.61,3.3-5.61,4.01,0,.95,.6,1.69,1.78,2.23,1.19,.53,2.79,.8,4.81,.8,14.73,0,28.89-10.39,42.49-31.18,13.6-20.78,21.29-45.67,23.07-74.65-9.74,9.26-19.33,18.08-28.77,26.46-9.44,8.37-18.91,16.42-28.42,24.14l-4.1-5.34c7.48-6.06,16.03-13.36,25.65-21.91,9.62-8.55,21.38-19.42,35.27-32.6,3.09-7.01,6.21-12.44,9.35-16.3,3.14-3.86,6.03-5.79,8.64-5.79,1.78,0,3.06,.39,3.83,1.16,.77,.77,1.16,2.05,1.16,3.83,0,2.85-1.51,6.29-4.54,10.33-3.03,4.04-7.22,8.25-12.56,12.65Z"/>
      <path class="cls-5" d="M1079.77,128.59h19.42l-57.01,75.89c-4.51,5.94-7.69,10.57-9.53,13.9-1.84,3.33-2.76,6-2.76,8.02,0,1.54,.51,2.79,1.51,3.74,1.01,.95,2.41,1.43,4.19,1.43,4.87,0,12.56-3.68,23.07-11.05,10.51-7.36,23.49-18.17,38.93-32.42l5.52,4.63c-16.75,15.68-30.94,27.47-42.58,35.36-11.64,7.9-20.67,11.85-27.08,11.85-4.16,0-7.45-1.43-9.89-4.28-2.43-2.85-3.65-6.65-3.65-11.4,0-6.41,1.67-13.12,4.99-20.13,3.33-7.01,9.2-16.15,17.64-27.44l37.23-48.1Zm50.42-57.37c2.38,0,4.42,.92,6.15,2.76,1.72,1.84,2.58,4.13,2.58,6.86,0,3.8-1.69,7.3-5.08,10.51-3.38,3.21-7.16,4.81-11.31,4.81-2.61,0-4.87-.92-6.77-2.76-1.9-1.84-2.85-3.95-2.85-6.32,0-4.04,1.78-7.69,5.34-10.96s7.54-4.9,11.94-4.9Z"/>
      <path class="cls-5" d="M1188.09,122.71c.71,10.1,1.18,17.37,1.43,21.82,.24,4.45,.36,8.05,.36,10.78,0,24.47-6.86,44.42-20.58,59.86-13.72,15.44-30.67,23.16-50.86,23.16-6.06,0-10.98-1.48-14.79-4.45-3.8-2.97-5.7-6.83-5.7-11.58s1.4-8.31,4.19-11.4c2.79-3.09,6.27-4.63,10.42-4.63,2.49,0,4.63,.89,6.41,2.67s2.67,3.92,2.67,6.41c0,4.39-1.87,7.57-5.61,9.53-3.74,1.96-5.61,3.3-5.61,4.01,0,.95,.6,1.69,1.78,2.23,1.19,.53,2.79,.8,4.81,.8,14.73,0,28.89-10.39,42.49-31.18,13.6-20.78,21.29-45.67,23.07-74.65-9.74,9.26-19.33,18.08-28.77,26.46-9.44,8.37-18.91,16.42-28.42,24.14l-4.1-5.34c7.48-6.06,16.03-13.36,25.65-21.91,9.62-8.55,21.38-19.42,35.27-32.6,3.09-7.01,6.21-12.44,9.35-16.3,3.14-3.86,6.03-5.79,8.64-5.79,1.78,0,3.06,.39,3.83,1.16,.77,.77,1.16,2.05,1.16,3.83,0,2.85-1.51,6.29-4.54,10.33-3.03,4.04-7.22,8.25-12.56,12.65Z"/>
    </g>
  </g>
</svg>