<?xml version="1.0" encoding="UTF-8"?>
<svg id="Livello_2" data-name="Livello 2" xmlns="http://www.w3.org/2000/svg" viewBox="0 0 340.52 260.4">
  <defs>
    <style>
      .cls-1 {
        fill: #57a639;
      }
    </style>
  </defs>
  <g id="Livello_1-2" data-name="Livello 1">
    <g>
      <path class="cls-1" d="M179.38,55.76c-4.62-.62-7.73-4.12-7.7-8.64,.04-4.54,3.15-7.87,7.86-8.42,3.19-.37,4.17-1.44,4.17-4.7,.01-9.73,.01-19.47,0-29.2,0-3.64-1.14-4.79-4.76-4.79C120.87,0,62.78,0,4.69,0,1.16,0,.01,1.14,0,4.59,0,14.41,0,24.22,0,34.04c0,3.28,.92,4.28,4.18,4.66,4.66,.54,7.83,3.95,7.84,8.45,.01,4.48-3.17,8.01-7.75,8.61C.72,56.22,0,57,0,60.53c0,50.75,0,101.5,0,152.24,0,3.95,.86,4.8,4.84,4.8,28.96,0,57.92,0,86.89,0,29.05,0,58.09,0,87.14,0,3.92,0,4.85-.92,4.85-4.83,0-50.66,0-101.33,0-151.99,0-3.66-.75-4.51-4.34-4.99Zm-5.11,154.9c-27.47-.03-54.93-.02-82.4-.02-27.38,0-54.77-.03-82.15,.06-2.34,0-2.8-.68-2.8-2.88,.06-47.51,.06-95.01,0-142.52,0-1.99,.45-2.97,2.47-3.75,6.02-2.3,9.65-7.99,9.63-14.42-.02-6.42-3.69-12.04-9.75-14.33-1.94-.73-2.39-1.68-2.36-3.59,.12-6.49,.14-12.98-.01-19.47-.05-2.19,.5-2.76,2.73-2.75,32.46,.08,64.92,.05,97.38,.05,22.22,0,44.45,.05,66.67-.07,2.63-.01,3.16,.75,3.09,3.2-.17,6.57-.09,13.14-.03,19.72,.01,1.44-.37,2.13-1.84,2.68-6.52,2.44-10.31,8-10.28,14.73,.03,6.6,3.83,12.1,10.23,14.52,1.4,.53,1.89,1.15,1.89,2.64-.04,48.01-.05,96.01,.02,144.02,0,2.12-.89,2.18-2.51,2.18Z"/>
      <path class="cls-1" d="M337.03,133.28c-3.52-.53-5.93-3.19-5.98-6.58-.05-3.53,2.36-6.32,5.95-6.87,3.01-.46,3.5-.99,3.51-3.98,.02-7.32,.01-14.64,0-21.96,0-3.62-.53-4.13-4.21-4.13-22.63,0-45.27,0-67.9,0-22.8,0-45.6,0-68.4,0-3.35,0-3.72,.38-3.73,3.73,0,7.32,0,14.64,0,21.96q0,3.71,3.75,4.43c3.28,.63,5.61,3.42,5.6,6.7-.01,3.29-2.38,6.07-5.65,6.65-3.59,.63-3.7,.75-3.7,4.26,0,39.59,0,79.18,0,118.78,0,3.51,.58,4.13,4,4.13,45.35,0,90.7,0,136.04,0,3.38,0,4.18-.77,4.18-4.06,0-39.68,0-79.35,0-119.03,0-3.02-.52-3.59-3.48-4.04Zm-4.69,121.65c-42.7-.07-85.39-.07-128.09,0-2.11,0-2.59-.59-2.59-2.63,.06-37.11,.05-74.21,.02-111.32,0-1.66,.32-2.56,2.08-3.3,4.83-2.01,7.37-5.9,7.38-11.13,0-5.24-2.6-9.07-7.38-11.15-1.69-.73-2.12-1.59-2.08-3.28,.1-4.91,.14-9.82-.02-14.72-.06-1.94,.57-2.3,2.38-2.3,21.47,.06,42.95,.04,64.42,.04,21.31,0,42.61,.04,63.92-.06,2.25-.01,2.78,.61,2.71,2.77-.17,4.99-.07,9.98-.04,14.97,0,1.09-.17,1.77-1.37,2.24-5.27,2.05-8.19,5.96-8.12,11.64,.06,5.57,2.96,9.41,8.18,11.35,1.28,.48,1.31,1.25,1.31,2.29-.02,5.24,0,10.48,0,15.72,0,32.03-.02,64.06,.05,96.09,0,2.19-.53,2.76-2.75,2.76Z"/>
      <path class="cls-1" d="M145.17,43.69c-35.52,0-71.04,0-106.56,0-.83,0-1.68-.06-2.49,.05-1.87,.27-3.04,1.33-3.13,3.28-.1,2.09,1.12,3.22,3.04,3.64,.72,.16,1.49,.06,2.24,.06,17.8,0,35.6,0,53.4,0s35.6,0,53.4,0c3.91,0,5.75-1.17,5.7-3.6-.05-2.34-1.84-3.44-5.6-3.44Z"/>
      <path class="cls-1" d="M310.64,123.77c-.33,.01-.67,0-1,0-27.62,0-55.24,0-82.86,0-.83,0-1.69-.07-2.48,.12-1.46,.36-2.28,1.36-2.16,2.92,.11,1.45,1,2.25,2.41,2.4,.74,.08,1.5,.04,2.24,.04,13.81,0,27.62,0,41.43,0,14.14,0,28.29-.01,42.43,.01,2.02,0,3.93-.31,3.91-2.72-.03-2.33-1.88-2.87-3.92-2.78Z"/>
    </g>
  </g>
</svg>