<?xml version="1.0" encoding="UTF-8"?>
<svg id="Livello_2" data-name="Livello 2" xmlns="http://www.w3.org/2000/svg" viewBox="0 0 73.15 31.13">
  <defs>
    <style>
      .cls-1 {
        fill: #fefefe;
      }

      .cls-2 {
        fill: #fdfdfd;
      }
    </style>
  </defs>
  <g id="Livello_1-2" data-name="Livello 1">
    <path class="cls-1" d="M46.31,15.38c.26-6.34,2.96-11.26,8.84-13.88,5.66-2.53,11.15-1.84,16.21,1.87,1.54,1.13,2.19,2.2,.2,3.51-.34,.22-.64,.54-.89,.87-1.09,1.4-1.93,1.85-3.66,.41-3.4-2.84-8.63-2.22-11.52,.93-3.05,3.33-3.14,9.12-.2,12.63,2.82,3.36,8.18,4.23,11.67,1.38,2.03-1.66,2.91-.91,4.31,.5,2.49,2.53,2.61,2.56-.2,4.46-5.32,3.6-10.98,4.08-16.73,1.19-5.63-2.83-7.91-7.75-8.03-13.86Z"/>
    <path class="cls-2" d="M25.2,15.44c0-4.33,.05-8.66-.03-12.99-.03-1.43,.42-1.84,1.83-1.82,4.41,.08,8.83,.11,13.24,0,1.65-.04,2.11,.44,2.09,2.08-.05,4.01,.03,4.02-3.87,4.02-1.42,0-2.85,.14-4.24-.03-2.15-.26-2.5,.64-2.6,2.63-.12,2.51,.72,3.3,3.05,2.88,.16-.03,.33,0,.5,0,4.77,0,4.73,0,4.3,4.79-.09,.96-.35,1.33-1.31,1.3-1.58-.05-3.17,.06-4.74-.03-1.3-.08-1.7,.38-1.75,1.69-.17,4.38-.22,4.38,4.03,4.38,1.25,0,2.52,.15,3.74-.03,2.54-.39,3.11,.58,3.15,3.08,.04,2.68-.79,3.32-3.32,3.18-3.98-.21-7.99-.13-11.98-.02-1.62,.04-2.18-.4-2.14-2.09,.11-4.33,.04-8.66,.04-12.99Z"/>
    <path class="cls-1" d="M12.34,1.13C8.58,.18,4.74,.83,.93,.69-.33,.64,.06,1.66,.05,2.32c-.03,4.4-.01,8.81-.01,13.21s.03,8.81-.02,13.21c-.01,1.21,.21,1.74,1.6,1.79,4.91,.19,4.91,.25,4.91-4.69v-.75q0-4.11,3.99-4.4c5.02-.37,9-3.99,9.47-8.63,.54-5.36-2.39-9.6-7.65-10.93Zm-4.01,13.55c-2.02-.05-1.79,.81-1.8-4.16q-.04-3.83,1.79-3.8c3.32,.05,5.21,1.46,5.22,4.03,.01,2.62-1.79,4.02-5.21,3.93Z"/>
  </g>
</svg>