<?xml version="1.0" encoding="UTF-8"?>
<svg id="Livello_2" data-name="Livello 2" xmlns="http://www.w3.org/2000/svg" viewBox="0 0 52.97 75.63">
  <defs>
    <style>
      .cls-1 {
        fill: #fefefe;
      }
    </style>
  </defs>
  <g id="Livello_1-2" data-name="Livello 1">
    <path class="cls-1" d="M51.98,19.59C48.66,7.16,36.2-1.42,23.61,.2,9.85,1.97,.02,12.89,0,26.43c-.11,4.78,1.05,9.27,3.52,13.33,6.78,11.16,13.63,22.27,20.51,33.37,2.07,3.34,2.84,3.33,4.94-.08,6.81-11.04,13.65-22.07,20.3-33.2,3.77-6.3,4.62-13.09,2.71-20.26Zm-25.53,17.42c-6.56,.01-11.93-5.36-11.9-11.89,.03-6.46,5.26-11.68,11.75-11.74,6.61-.06,11.98,5.17,12.04,11.72,.06,6.49-5.34,11.9-11.89,11.91Z"/>
  </g>
</svg>