<?xml version="1.0" encoding="UTF-8"?>
<svg id="Livello_2" data-name="Livello 2" xmlns="http://www.w3.org/2000/svg" viewBox="0 0 188.27 136.25">
  <defs>
    <style>
      .cls-1 {
        fill: #57a639;
      }
    </style>
  </defs>
  <g id="Livello_1-2" data-name="Livello 1">
    <path class="cls-1" d="M188.21,16.67C188.18,6.75,181.16,0,171.27,0c-25.71,0-51.42,0-77.14,0-25.96,0-51.92-.01-77.89,0C7,.02,0,7.02,0,16.26,0,50.78,0,85.3,.02,119.82c0,1.24,.06,2.51,.35,3.7,1.95,7.97,8.19,12.7,16.85,12.71,19.72,.03,39.44,.01,59.16,.01,31.45,0,62.91,.01,94.36,0,10.32,0,17.44-6.71,17.47-16.76,.08-34.27,.08-68.54,0-102.81ZM16.36,6.44c51.77,0,103.55,0,155.32,0,1.32,0,2.62,.05,4.07,.88-4.1,3.86-8.07,7.61-12.06,11.35-22.69,21.3-45.4,42.58-68.06,63.92-1.22,1.15-1.84,1.27-3.12,.06C66.46,58.11,40.36,33.63,14.26,9.15c-.6-.56-1.33-.97-2.14-1.56,1.63-1.19,2.94-1.16,4.23-1.16ZM7.27,123.15c-.28-.04-.55-.07-.83-.11,0-35.85,0-71.7,.01-107.55,0-1.24,.21-2.46,1.22-3.59,3.98,3.73,7.92,7.41,11.85,11.1,13.16,12.35,26.29,24.73,39.5,37.02,1.47,1.36,1.33,2.1,.11,3.5-16.88,19.37-33.71,38.78-50.55,58.19-.42,.49-.88,.95-1.32,1.43Zm167.32,6.19c-1.4,.35-2.79,.41-4.2,.41-25.47,0-50.94,0-76.41,0-25.39,0-50.77,0-76.16,0-2.1,0-4.92,.34-5.8-1.28-.73-1.35,1.86-2.93,3.06-4.32,16.21-18.76,32.49-37.45,48.68-56.23,1.43-1.66,2.13-1.5,3.59-.1,7.63,7.31,15.38,14.5,23.08,21.73,3.07,2.88,4.08,2.9,7.07,.09,7.82-7.35,15.67-14.67,23.45-22.07,1.2-1.15,1.85-1.32,3.05,.07,17.09,19.76,34.22,39.48,51.39,59.17,1.34,1.54,1,2.09-.79,2.54Zm6.47-6.28c-.94-.26-1.31-1.07-1.83-1.67-16.73-19.27-33.43-38.58-50.2-57.81-1.28-1.47-1.48-2.18,.08-3.64,16.73-15.58,33.38-31.26,50.05-46.91,.41-.39,.86-.73,1.36-1.15,1.03,1.57,1.21,3.19,1.21,4.85,0,34.25,0,68.51,0,102.76,0,1.23-.11,2.43-.68,3.57Z"/>
  </g>
</svg>