<?xml version="1.0" encoding="UTF-8"?>
<svg id="Livello_2" data-name="Livello 2" xmlns="http://www.w3.org/2000/svg" viewBox="0 0 76.8 49.4">
  <defs>
    <style>
      .cls-1 {
        fill: #fefefe;
      }
    </style>
  </defs>
  <g id="Livello_1-2" data-name="Livello 1">
    <g>
      <path class="cls-1" d="M4.53,0H72.75c.37,.84-.31,1.07-.72,1.41-10.4,8.7-20.84,17.37-31.2,26.11-1.53,1.29-2.57,1.51-4.24,.1C26.31,18.9,15.93,10.31,5.59,1.66c-.48-.4-1.23-.63-1.06-1.66Z"/>
      <path class="cls-1" d="M73.14,49.4h-2.81c-21.15,0-42.3,0-63.45,0-.42,0-.83,.01-1.25,0-.4-.02-.92,.1-1.11-.35-.25-.6,.31-.87,.67-1.17,1.59-1.34,3.18-2.68,4.78-4.01,5.88-4.9,11.8-9.76,17.62-14.73,1.56-1.33,2.78-1.49,4.3-.06,1.46,1.36,3.15,2.48,4.56,3.88,1.62,1.61,2.94,1.37,4.48-.08,1.58-1.48,3.31-2.78,4.96-4.19,1.04-.89,2.03-.96,3.12-.06,7.85,6.56,15.72,13.11,23.57,19.68,.17,.14,.22,.42,.55,1.1Z"/>
      <path class="cls-1" d="M.49,45.97c-.69-.6-.39-1.41-.4-2.11-.02-12.8-.02-25.61,0-38.41,0-.71-.38-1.7,.41-2.06,.78-.36,1.27,.58,1.81,1.03,7.35,6.1,14.66,12.25,22.05,18.3,1.74,1.42,1.82,2.29,0,3.77-7.41,6.03-14.69,12.21-22.04,18.31-.55,.45-.96,1.17-1.82,1.18Z"/>
      <path class="cls-1" d="M76.8,2.89V46.25c-2.18-1.79-4.13-3.38-6.06-4.99-6.06-5.06-12.1-10.14-18.18-15.18-1.08-.9-1.6-1.65-.26-2.76,8.04-6.68,16.06-13.39,24.5-20.44Z"/>
    </g>
  </g>
</svg>