<?xml version="1.0" encoding="UTF-8"?>
<svg id="Livello_2" data-name="Livello 2" xmlns="http://www.w3.org/2000/svg" viewBox="0 0 64.89 63.15">
  <defs>
    <style>
      .cls-1 {
        fill: #f6f8f6;
      }

      .cls-2 {
        fill: #f8f9f8;
      }

      .cls-3 {
        fill: #edf1ee;
      }

      .cls-4 {
        fill: #fefefe;
      }
    </style>
  </defs>
  <g id="Livello_1-2" data-name="Livello 1">
    <path class="cls-4" d="M47.9,63.15c-13.71-1.06-25.62-7.18-35.12-17.95C4.99,36.35,.9,25.88,.02,14.14c-.16-2.13,.44-3.91,2.02-5.39,1.4-1.31,2.72-2.7,4.09-4.03C10.53,.46,16.24,1.76,18.41,7.5c1.21,3.19,2.34,6.4,3.65,9.55,1.16,2.8,.67,5.13-1.42,7.29-3.06,3.16-3.07,3.95-.45,7.45,3.57,4.77,7.77,8.89,12.62,12.34,2.42,1.72,3.91,1.73,5.93-.42,2.65-2.82,5.49-3.33,9-1.79,3.12,1.37,6.39,2.39,9.57,3.61,4.64,1.79,6.02,7.58,2.64,11.26-1.63,1.77-3.43,3.39-5.14,5.1-1.81,1.82-4.1,.83-6.92,1.27Z"/>
    <path class="cls-2" d="M64.89,28.04c-.49,.89,.73,2.74-.85,2.82-1.59,.08-1.02-1.78-1.09-2.81-.82-13.69-12.54-25.34-26.3-26.1-.5-.03-1-.05-1.49-.05-.82,0-1.65-.2-1.57-1.15,.07-.87,.96-.74,1.61-.73,9.41,.09,17.03,3.97,23.01,11.09,4.07,4.84,6.31,10.5,6.68,16.94Z"/>
    <path class="cls-1" d="M55.02,28.84c-.15,.7,.47,2.02-.89,2.09-1.3,.06-1.04-1.25-1.13-2.1-1.01-9.56-7.51-16.04-17.15-17.05-.41-.04-.83-.03-1.24-.11-.59-.12-1.16-.36-1.05-1.12,.09-.59,.59-.78,1.12-.77,.83,0,1.66,.04,2.48,.13,9.52,1.04,17.47,9.43,17.85,18.94Z"/>
    <path class="cls-3" d="M45.07,29.36c-.04,.64,.12,1.47-.75,1.62-1.04,.18-1.18-.7-1.28-1.44-.61-4.79-3.4-7.34-8.09-7.98-.69-.09-1.45-.19-1.4-1.05,.06-1.01,.93-.98,1.69-.97,4.86,.04,9.83,5.02,9.82,9.82Z"/>
  </g>
</svg>